<mxfile host="app.diagrams.net" agent="Mozilla/5.0 (Windows NT 10.0; Win64; x64) AppleWebKit/537.36 (KHTML, like Gecko) Chrome/131.0.0.0 Safari/537.36" version="26.0.5">
  <diagram name="Page-1" id="6QrXRaOZTVzmog3ZwZTT">
    <mxGraphModel>
      <root>
        <mxCell id="0" />
        <mxCell id="1" parent="0" />
        <mxCell id="2" value="Operations" style="whiteSpace=wrap;strokeWidth=2;verticalAlign=top;" vertex="1" parent="1">
          <mxGeometry x="8" y="8" width="289" height="258" as="geometry" />
        </mxCell>
        <mxCell id="3" value="Vulnerability Scanning" style="whiteSpace=wrap;strokeWidth=2;" vertex="1" parent="2">
          <mxGeometry x="43" y="46" width="219" height="54" as="geometry" />
        </mxCell>
        <mxCell id="4" value="Compliance Checks" style="whiteSpace=wrap;strokeWidth=2;" vertex="1" parent="2">
          <mxGeometry x="53" y="175" width="198" height="54" as="geometry" />
        </mxCell>
        <mxCell id="5" value="" style="curved=1;startArrow=none;endArrow=block;exitX=0.5;exitY=0.99;entryX=0.5;entryY=-0.01;" edge="1" parent="2" source="3" target="4">
          <mxGeometry relative="1" as="geometry">
            <Array as="points" />
          </mxGeometry>
        </mxCell>
        <mxCell id="6" value="Security" style="whiteSpace=wrap;strokeWidth=2;verticalAlign=top;" vertex="1" parent="1">
          <mxGeometry x="27" y="316" width="251" height="258" as="geometry" />
        </mxCell>
        <mxCell id="7" value="Static Analysis" style="whiteSpace=wrap;strokeWidth=2;" vertex="1" parent="6">
          <mxGeometry x="53" y="46" width="162" height="54" as="geometry" />
        </mxCell>
        <mxCell id="8" value="Dynamic Analysis" style="whiteSpace=wrap;strokeWidth=2;" vertex="1" parent="6">
          <mxGeometry x="43" y="175" width="181" height="54" as="geometry" />
        </mxCell>
        <mxCell id="9" value="" style="curved=1;startArrow=none;endArrow=block;exitX=0.5;exitY=0.99;entryX=0.5;entryY=-0.01;" edge="1" parent="6" source="7" target="8">
          <mxGeometry relative="1" as="geometry">
            <Array as="points" />
          </mxGeometry>
        </mxCell>
        <mxCell id="10" value="Development" style="whiteSpace=wrap;strokeWidth=2;verticalAlign=top;" vertex="1" parent="1">
          <mxGeometry x="63" y="624" width="179" height="387" as="geometry" />
        </mxCell>
        <mxCell id="11" value="Code" style="whiteSpace=wrap;strokeWidth=2;" vertex="1" parent="10">
          <mxGeometry x="49" y="46" width="96" height="54" as="geometry" />
        </mxCell>
        <mxCell id="12" value="Build" style="whiteSpace=wrap;strokeWidth=2;" vertex="1" parent="10">
          <mxGeometry x="49" y="175" width="96" height="54" as="geometry" />
        </mxCell>
        <mxCell id="13" value="Deploy" style="whiteSpace=wrap;strokeWidth=2;" vertex="1" parent="10">
          <mxGeometry x="43" y="304" width="109" height="54" as="geometry" />
        </mxCell>
        <mxCell id="14" value="" style="curved=1;startArrow=none;endArrow=block;exitX=0.5;exitY=0.99;entryX=0.5;entryY=-0.01;" edge="1" parent="10" source="11" target="12">
          <mxGeometry relative="1" as="geometry">
            <Array as="points" />
          </mxGeometry>
        </mxCell>
        <mxCell id="15" value="" style="curved=1;startArrow=none;endArrow=block;exitX=0.5;exitY=0.99;entryX=0.5;entryY=-0.01;" edge="1" parent="10" source="12" target="13">
          <mxGeometry relative="1" as="geometry">
            <Array as="points" />
          </mxGeometry>
        </mxCell>
      </root>
    </mxGraphModel>
  </diagram>
</mxfile>
